inDegrees=no
num_controls=7
num_derivatives=13
num_iterations=195
num_multipliers=7
num_parameters=0
num_slacks=7
num_states=26
objective=6.549952
objective_accelerations=0.703225
objective_balance=0.072639
objective_effort=0.549328
objective_height=5.157271
objective_ligament=0.067489
solver_duration=1669.986985
status=Solve_Succeeded
success=true
DataType=double
version=3
OpenSimVersion=4.4-2022-07-23-0e9fedc
endheader
time	/jointset/ground_pelvis/pelvis_tilt/value	/jointset/ground_pelvis/pelvis_tx/value	/jointset/ground_pelvis/pelvis_ty/value	/jointset/hip_r/hip_flexion_r/value	/jointset/hip_r/hip_adduction_r/value	/jointset/hip_r/hip_rotation_r/value	/jointset/back/lumbar_extension/value	/jointset/patellofemoral_r/patellar_flexion_r/value	/jointset/knee_r/knee_flexion_r/value	/jointset/knee_r/knee_adduction_r/value	/jointset/knee_r/knee_rotation_r/value	/jointset/ankle_r/ankle_angle_r/value	/jointset/subtalar_r/subtalar_angle_r/value	/jointset/ground_pelvis/pelvis_tilt/speed	/jointset/ground_pelvis/pelvis_tx/speed	/jointset/ground_pelvis/pelvis_ty/speed	/jointset/hip_r/hip_flexion_r/speed	/jointset/hip_r/hip_adduction_r/speed	/jointset/hip_r/hip_rotation_r/speed	/jointset/back/lumbar_extension/speed	/jointset/patellofemoral_r/patellar_flexion_r/speed	/jointset/knee_r/knee_flexion_r/speed	/jointset/knee_r/knee_adduction_r/speed	/jointset/knee_r/knee_rotation_r/speed	/jointset/ankle_r/ankle_angle_r/speed	/jointset/subtalar_r/subtalar_angle_r/speed	/forceset/tau_hip_flexion_r	/forceset/tau_hip_adduction_r	/forceset/tau_hip_rotation_r	/forceset/tau_knee_flexion_r	/forceset/tau_ankle_angle_r	/forceset/tau_subtalar_angle_r	/forceset/tau_lumbar_extension	lambda_cid13_p0	lambda_cid14_p0	lambda_cid14_p1	lambda_cid14_p2	lambda_cid14_p3	lambda_cid14_p4	lambda_cid14_p5	/jointset/ground_pelvis/pelvis_tilt/accel	/jointset/ground_pelvis/pelvis_tx/accel	/jointset/ground_pelvis/pelvis_ty/accel	/jointset/hip_r/hip_flexion_r/accel	/jointset/hip_r/hip_adduction_r/accel	/jointset/hip_r/hip_rotation_r/accel	/jointset/back/lumbar_extension/accel	/jointset/patellofemoral_r/patellar_flexion_r/accel	/jointset/knee_r/knee_flexion_r/accel	/jointset/knee_r/knee_adduction_r/accel	/jointset/knee_r/knee_rotation_r/accel	/jointset/ankle_r/ankle_angle_r/accel	/jointset/subtalar_r/subtalar_angle_r/accel	gamma_cid13_p0	gamma_cid14_p0	gamma_cid14_p1	gamma_cid14_p2	gamma_cid14_p3	gamma_cid14_p4	gamma_cid14_p5
1	-0.3426859675192417	-0.01214122878372881	0.6320493710999318	1.570248771597813	-0.2326117256386423	-0.0753763219708795	-0.4363314127162126	1.457389796085375	1.45738979608538	-0.1201958173285243	0.1743077184589581	0.4363154213258035	0.1102485899789897	-0.001748658032580419	0.002999241041177144	0.01729074359582645	-0.0437847028778604	0.001539440221274075	-0.004297124483990943	-5.356132559049006e-05	-0.05148145838721333	-0.05148145838721313	0.007585605688061762	-5.601621630357858e-05	-0.007419164576911541	-0.000231926491776556	-0.3157033036337851	0.008254860396536532	0.00602318171032453	-0.505332478832902	-0.001535743466929272	0.01321190216709017	0.3218810368106006	-0.04373776355767713	-50.03263173295853	-3.567703102035094	1.651599590431852	17.04176827310176	-815.6606150945664	67.15941320098969	1.407029275941438	0.09292529839755746	1.993996479776147	-6.05870124234163	0.1606961984240791	-0.285623978382505	-0.03081000998267332	-5.608244255668867	-5.608244255668969	1.035287166902371	0.02181688846215145	-1.14683838408393	-0.1769077896622823	3.988038348275646e-09	7.237201370259043e-09	3.104676284806358e-08	3.599668840081245e-08	-5.344741995621412e-09	-5.787266689998174e-09	5.942834109866823e-08
1.01	-0.342633970903744	-0.01210668637143251	0.632321792287638	1.569509243371428	-0.2325882500004254	-0.07543139415619231	-0.4363323129985824	1.456594768869577	1.456594768869557	-0.1200661235220538	0.1743076925801553	0.4361835894278434	0.1102373356478307	0.01212845841354235	0.003903074305423557	0.03718752925133667	-0.104084219006753	0.003155986299187159	-0.006720201236355114	-8.55720916514631e-05	-0.1075352886154804	-0.1075352886154809	0.01835405342254278	5.11180403047525e-05	-0.01897801254619009	-0.002030575398019779	-0.3160211467608727	0.008502324014997399	0.006046292547390328	-0.5045399346387135	-0.002529080481297432	0.01323905565770897	0.3221152249923374	-0.04376244150734276	-50.35255638675052	-3.61184017845515	1.658537488388817	17.37666184079545	-815.5697276513353	67.02401764533231	1.375126971015078	0.08818466863980778	1.98662267385811	-6.010065862518328	0.1621892913761516	-0.2210778847111295	0.01680044239995882	-5.60564956983324	-5.605649569833233	1.097758464773835	0.005223792118894788	-1.165027967943026	-0.183069876728762	7.895400503101738e-09	1.542777939861691e-08	6.470761186992313e-08	7.441515956354655e-08	-1.294816340046871e-08	-1.109873867699825e-08	1.22663576235063e-07
1.02	-0.3424437882953741	-0.01206329116085334	0.6327930019449833	1.56816782217089	-0.2325485978056454	-0.07551078278124798	-0.4363322978843286	1.455238863918811	1.45523886391876	-0.1198287182606147	0.1743087504634862	0.4359352450572708	0.1102077495404853	0.02588854054236692	0.00476980069774995	0.05704843752363309	-0.1641632977098513	0.004774751533148501	-0.009160412430628017	0.0001302992350061282	-0.163657005380853	-0.1636570053808536	0.02912789667913516	0.0001607362112618362	-0.03072165909919744	-0.003898281729199789	-0.3163389898879236	0.008749787633458097	0.006069403384402667	-0.5037473904445282	-0.003522417495671582	0.01326620914832619	0.322349413174109	-0.0437965001122062	-50.68139307108456	-3.654216880291815	1.661401139775217	17.72911251629912	-815.618493958655	66.91380042548863	1.383622412481745	0.08550392401358688	1.986821003133393	-6.014613757182794	0.1611400296337251	-0.2890508667642574	0.01876640856143717	-5.621821563089966	-5.621821563089963	1.036366271324643	0.02231367133190865	-1.18379810082963	-0.1907192746496277	1.150729010658142e-08	2.054229310612627e-08	9.607187122198857e-08	1.113843011863323e-07	-1.432009110687283e-08	-1.634000170199603e-08	1.795347506816599e-07
1.03	-0.3421168432853339	-0.01201118834287827	0.63346258751913	1.566226798870166	-0.2324927971397868	-0.07561476239198477	-0.436327510137513	1.453321527656557	1.453321527656547	-0.1194836281746433	0.1743109382581091	0.4355688392291958	0.11015917955522	0.03945338369392001	0.005667160951670752	0.07685717750367188	-0.2239939227719374	0.006380131658661455	-0.01164228397744251	0.00100855940654914	-0.2198092194348191	-0.2198092194348222	0.03989033781066485	0.0002792601599007246	-0.04256092345339137	-0.005824713974888688	-0.3172913326732051	0.008982655203731038	0.006146009007508881	-0.5025951101083864	-0.004474429819075322	0.01329833271130491	0.3233329288907931	-0.04382136224471312	-50.99480674575881	-3.686976779073577	1.657297438694966	17.76625088355361	-815.8966703320856	66.78155592186836	1.335858937102763	0.09430865072662736	1.976171177274175	-5.960165912101535	0.159471335395762	-0.2287620650116988	0.1495522127327071	-5.611770226397541	-5.611770226397892	1.096216596612585	0.007027922293102565	-1.184204705538778	-0.1949173349710861	1.511616468402696e-08	2.562541840219838e-08	1.274126959855867e-07	1.483386537321799e-07	-1.562843214288464e-08	-2.15805483090142e-08	2.363409857334629e-07
1.04	-0.3416556611096561	-0.0119496206074349	0.6343299146294442	1.563688893512556	-0.2324210958063916	-0.07574376207147748	-0.436308500510707	1.450842699473795	1.450842699473818	-0.1190309069648337	0.1743143925253424	0.4350839979370139	0.11009108282041	0.05273597366990435	0.00666278419141151	0.09659674475711318	-0.2835397090892217	0.007954885039603421	-0.01416442617912235	0.002974675229371255	-0.27595538948269	-0.2759553894826956	0.05065412144401015	0.000414030735069037	-0.05440875192056518	-0.007803631638280557	-0.3182436754584358	0.009215522773994568	0.006222614630575006	-0.5014428297722465	-0.005426442142489236	0.01333045627426435	0.3243164446075272	-0.04385593383482292	-51.31734609626939	-3.717966510643063	1.649064024542811	17.8215898100911	-816.3177883267349	66.67440066786324	1.327171777367932	0.1051565211776139	1.972986457813898	-5.957646008222437	0.1550146807195215	-0.2971049977373353	0.2363375388171833	-5.620612761870921	-5.620612761870917	1.036634771687765	0.02556299663780198	-1.185510923425543	-0.2012163581902102	1.818987665757099e-08	3.252967539958188e-08	1.554925317022696e-07	1.805675382960055e-07	-2.244573398656351e-08	-2.556560248509232e-08	2.868389184240889e-07
1.05	-0.3410629500874191	-0.01187761012459383	0.635394200055967	1.560557083169987	-0.2323338060588657	-0.07589829615035795	-0.4362647160238505	1.447802582488638	1.447802582488616	-0.1184706824445915	0.1743192639257228	0.4344805333266546	0.1100028892828489	0.0657674112085494	0.007755230329781894	0.1162393886750207	-0.3427590480380711	0.009497223058732724	-0.01674964206488876	0.005935024099565849	-0.332052523466787	-0.3320525234667895	0.06138769683117754	0.000559850900715073	-0.06629594633266588	-0.009848822601651933	-0.3186087345892853	0.009369652757873784	0.006352720130883454	-0.5000582175313635	-0.006049464293965936	0.01334727413372872	0.3248068263899804	-0.04390042552572729	-51.49848733072729	-3.726140294774516	1.631818813248857	17.81513408219799	-816.1238399316132	66.57592689637701	1.285314111476272	0.1136703955758821	1.956754635782115	-5.894574190965603	0.1529983572307611	-0.2403042913066785	0.3488038546608893	-5.60194538464519	-5.601945384644718	1.091257722857432	0.009089837348018937	-1.192091917057271	-0.20817841528354	2.124686479974309e-08	3.949084276263134e-08	1.834704615112364e-07	2.126487519853928e-07	-2.943519085548194e-08	-2.951142252270357e-08	3.371397166659281e-07
1.06	-0.3403410878159226	-0.01179419883328726	0.6366542821770697	1.556834980167374	-0.2322312619322023	-0.07607889726956586	-0.4361867439895846	1.444201957830047	1.444201957829982	-0.1178032144103408	0.1743255931899196	0.4337578431287833	0.1098938422456801	0.07856622352173329	0.008942945884512492	0.1357560836730423	-0.4015982410969002	0.01100576086670534	-0.01937783424306876	0.009812184711373189	-0.3880569241695278	-0.388056924169527	0.07210282424338965	0.0007056034991620716	-0.07825386942296295	-0.01197433155994062	-0.3189737937201723	0.009523782741750092	0.006482825631124356	-0.4986736052904848	-0.006672486445437982	0.01336409199319139	0.3252972081723973	-0.04395481615750668	-51.68889847340894	-3.732593336819124	1.610479388928945	17.82615002004315	-816.0759519769691	66.50205477230303	1.280646732275645	0.1242104044496927	1.947796673836701	-5.881616830218404	0.1482546384881794	-0.3057002562200654	0.419699887139692	-5.602066105599658	-5.602066105599658	1.03294517669671	0.02554948319800385	-1.199656659064756	-0.2172799571736596	2.352329150387622e-08	4.43317262023634e-08	2.058282141565584e-07	2.376599885248594e-07	-3.393855683875961e-08	-3.299827870132206e-08	3.746141609936251e-07
1.07	-0.3394923071508374	-0.01169839500792958	0.638108821148949	1.552526451447213	-0.2321138153177303	-0.0762861494720236	-0.4360654923185623	1.440041894681326	1.440041894681277	-0.1170288636743492	0.1743333797889184	0.4329152063023631	0.109763117275429	0.09115732092032122	0.01023760564809706	0.1551224634568357	-0.4600348538747228	0.01247637142886423	-0.02208033153605124	0.0145872415308913	-0.4439258011689824	-0.4439258011689818	0.08276172600732072	0.000848999563434033	-0.09028676129132927	-0.01418677868822913	-0.3189595899061516	0.009618796630820171	0.006661074212436995	-0.4970230755578461	-0.007018295706810919	0.01336527614809748	0.3254987518506401	-0.04401500976568618	-51.75997485864602	-3.7211063671609	1.581899660024404	17.73041650721168	-815.5492671185746	66.42355934223323	1.243461783515414	0.1350540078211576	1.926664202661299	-5.813777751789237	0.1454243186027943	-0.2536669512739691	0.5287723849078275	-5.574818019488236	-5.574818019488265	1.081525987912796	0.008398552988824479	-1.207097493842863	-0.225577656848378	2.575819898258175e-08	4.905982858234452e-08	2.278870212080695e-07	2.622951624499683e-07	-3.830968394514147e-08	-3.646072190871753e-08	4.114063524535484e-07
1.08	-0.3385185914037923	-0.01158905253583441	0.6397561450330681	1.547635737749234	-0.2319818705869289	-0.0765206551445072	-0.4358920173182338	1.435324038858135	1.435324038858101	-0.1161480912583738	0.1743425331255447	0.4319518421486352	0.1096097977206573	0.1035532399135132	0.0116506752320105	0.1743130661210581	-0.5180352366615475	0.01390538413194434	-0.02482852824649767	0.02025685057240921	-0.4996154590632315	-0.4996154590632312	0.09338716023810849	0.0009789510255875928	-0.1023993348845062	-0.01649324846419473	-0.3189453860921124	0.009713810519887376	0.0068393227937114	-0.4953725458252091	-0.007364104968187067	0.01336646030299814	0.325700295528901	-0.04408531640554971	-51.84050942316748	-3.708012565155309	1.549336355254004	17.65176211766139	-815.172179460901	66.36888003673853	1.241611051196394	0.1478923685155013	1.912641249922493	-5.794370832018838	0.1399350666724182	-0.3148401397128655	0.5986103315396127	-5.566222284558547	-5.566222284558551	1.026251670068043	0.02286056277433306	-1.215593004026803	-0.2360844867090652	2.708995689890011e-08	5.19720045728039e-08	2.434749582906338e-07	2.785398646922359e-07	-4.119031608188517e-08	-3.918635347978517e-08	4.34101404296231e-07
